<svg width="17" height="12" viewBox="0 0 17 12" fill="none" xmlns="http://www.w3.org/2000/svg">
<path d="M15.3 0H1.7C0.765 0 0.00849999 0.675 0.00849999 1.5L0 10.5C0 11.325 0.765 12 1.7 12H15.3C16.235 12 17 11.325 17 10.5V1.5C17 0.675 16.235 0 15.3 0ZM14.96 3.1875L8.9505 6.5025C8.6785 6.6525 8.3215 6.6525 8.0495 6.5025L2.04 3.1875C1.95477 3.14528 1.88013 3.08825 1.82061 3.01984C1.76108 2.95143 1.7179 2.87308 1.69369 2.78953C1.66948 2.70597 1.66473 2.61895 1.67973 2.53373C1.69474 2.44851 1.72919 2.36686 1.78099 2.29373C1.83279 2.22059 1.90088 2.15749 1.98112 2.10825C2.06136 2.059 2.15209 2.02463 2.24782 2.00722C2.34355 1.98981 2.44229 1.98973 2.53806 2.00696C2.63383 2.0242 2.72464 2.0584 2.805 2.1075L8.5 5.25L14.195 2.1075C14.2754 2.0584 14.3662 2.0242 14.4619 2.00696C14.5577 1.98973 14.6564 1.98981 14.7522 2.00722C14.8479 2.02463 14.9386 2.059 15.0189 2.10825C15.0991 2.15749 15.1672 2.22059 15.219 2.29373C15.2708 2.36686 15.3053 2.44851 15.3203 2.53373C15.3353 2.61895 15.3305 2.70597 15.3063 2.78953C15.2821 2.87308 15.2389 2.95143 15.1794 3.01984C15.1199 3.08825 15.0452 3.14528 14.96 3.1875V3.1875Z" fill="#FF4500"/>
</svg>
