<svg width="15" height="15" viewBox="0 0 15 15" fill="none" xmlns="http://www.w3.org/2000/svg">
<path d="M9.99962 10.6631L11.292 9.37073C11.465 9.1977 11.6849 9.07923 11.9246 9.03001C12.1643 8.98078 12.4131 9.00296 12.6403 9.0938L14.2142 9.72382C14.4462 9.81664 14.645 9.97683 14.7851 10.1837C14.9251 10.3906 15 10.6348 15 10.8846V13.7469C15.0004 13.917 14.9661 14.0854 14.8991 14.2418C14.8322 14.3982 14.7341 14.5393 14.6107 14.6564C14.4873 14.7736 14.3414 14.8643 14.1817 14.9231C14.0221 14.9819 13.8521 15.0074 13.6823 14.9982C2.64993 14.3117 0.421771 4.96749 0.00810155 1.38929C-0.0119336 1.21435 0.00529343 1.03716 0.0586498 0.869366C0.112006 0.70157 0.200283 0.54697 0.317673 0.415737C0.435064 0.284504 0.578908 0.179611 0.739744 0.107957C0.90058 0.0363036 1.07476 -0.00048719 1.25084 4.87139e-06H4.06229C4.31214 -3.15162e-06 4.55627 0.0748527 4.76318 0.214916C4.97009 0.35498 5.13028 0.553826 5.2231 0.785803L5.85255 2.35971C5.94338 2.58689 5.96556 2.83574 5.91634 3.07541C5.86711 3.31508 5.74864 3.53504 5.57561 3.70803L4.28326 5.00038C4.28326 5.00038 4.99982 10.0383 9.99962 10.6631Z" fill="#FF4500"/>
</svg>
